<?xml version="1.0" standalone="no"?>
<!DOCTYPE svg PUBLIC "-//W3C//DTD SVG 20010904//EN"
 "http://www.w3.org/TR/2001/REC-SVG-20010904/DTD/svg10.dtd">
<svg version="1.0" xmlns="http://www.w3.org/2000/svg"
 width="600.000000pt" height="600.000000pt" viewBox="0 0 600.000000 600.000000"
 preserveAspectRatio="xMidYMid meet">
<g transform="translate(0.000000,600.000000) scale(0.050000,-0.050000)"
fill="#000000" stroke="none">
<path d="M0 6000 l0 -6000 990 0 990 0 0 56 c0 180 152 693 326 1104 70 165
344 650 394 700 6 6 64 82 129 170 239 321 774 810 1063 970 43 24 92 57 110
72 17 15 38 28 47 28 9 0 59 26 111 58 134 83 542 249 762 311 62 18 165 42
230 53 65 12 159 30 208 40 508 102 1357 39 1830 -135 77 -28 185 -65 240 -82
55 -17 105 -36 110 -43 6 -7 51 -31 100 -52 133 -58 573 -315 639 -373 31 -27
79 -64 106 -82 102 -66 595 -520 595 -547 0 -5 47 -66 105 -135 262 -313 557
-816 666 -1133 20 -60 43 -119 51 -130 7 -11 33 -87 57 -170 24 -82 52 -172
61 -200 38 -113 50 -175 72 -365 l13 -115 997 0 998 0 0 6000 0 6000 -6000 0
-6000 0 0 -6000z m6317 3388 c281 -30 812 -215 883 -308 6 -7 62 -47 125 -89
133 -87 393 -358 470 -491 29 -49 59 -94 67 -100 24 -18 190 -367 227 -480 20
-60 44 -128 53 -150 9 -22 39 -134 66 -250 46 -190 64 -310 108 -690 44 -387
7 -985 -80 -1280 -130 -446 -487 -885 -796 -979 -27 -9 -95 -36 -150 -60 -93
-41 -193 -66 -530 -135 -216 -43 -1333 -36 -1600 11 -284 50 -672 180 -730
244 -11 13 -60 46 -110 74 -281 160 -553 618 -620 1050 -12 74 -26 158 -32
185 -54 263 -12 1036 80 1470 142 675 458 1241 863 1550 138 105 188 140 198
140 7 0 45 22 86 49 41 27 129 68 195 91 66 24 138 51 160 61 127 58 810 136
927 106 14 -4 77 -12 140 -19z"/>
</g>
</svg>
